# xmcd
#
# Track frame offsets:
#	150
#	11092
#	22675
#	34505
#	48755
#	63932
#	80452
#	90230
#	97747
#	108422
#	117347
#
# Disc length: 1743 seconds
#
# Revision: 1
# Processed by: cddbd v1.4b41PL2 Copyright (c) Steve Scherf et al.
# Submitted via: audiograbber 1.80
#
DISCID=6c06cd0b
DTITLE=Ill-Eagles - Livin' In the House of Hope [CD2]
DYEAR=1900
DGENRE=
TTITLE0=Pipeline
TTITLE1=That's Bill's Story
TTITLE2=The Coleman
TTITLE3=Trouble
TTITLE4=Guys View It
TTITLE5=Wild Hair Day
TTITLE6=Big Fig Bar
TTITLE7=Cats in the Kettle
TTITLE8=Emotionless Guy
TTITLE9=I'd Rather Ride Around With You
TTITLE10=Chinese Money
EXTD=
EXTT0=
EXTT1=
EXTT2=
EXTT3=
EXTT4=
EXTT5=
EXTT6=
EXTT7=
EXTT8=
EXTT9=
EXTT10=
PLAYORDER=
